<?xml version="1.0" ?><svg data-name="Layer 1" id="Layer_1" viewBox="0 0 512 512" xmlns="http://www.w3.org/2000/svg" xmlns:xlink="http://www.w3.org/1999/xlink"><defs><style>.cls-1{fill:url(#linear-gradient);}</style><linearGradient gradientUnits="userSpaceOnUse" id="linear-gradient" x1="4.513" x2="486.177" y1="507.487" y2="25.823"><stop offset="0" stop-color="#1243ce"/><stop offset="1" stop-color="#1478f8"/></linearGradient></defs><title/><path class="cls-1" d="M256,0C114.615,0,0,114.615,0,256S114.615,512,256,512,512,397.385,512,256,397.385,0,256,0ZM405.191,214.588l-14.457,3.527a130.956,130.956,0,0,0-15.169-36.8l12.747-7.68A145.356,145.356,0,0,1,405.191,214.588Zm-250.94,82.875a117.926,117.926,0,0,1-8.116-26.025,118.409,118.409,0,1,1,97.258,94.931,118.354,118.354,0,0,1-43.711-16.549l-17.261,4.047-18.132,4.238-14,3.282,3.229-14.085,4.2-18.27,4-17.453A121.74,121.74,0,0,1,154.251,297.463ZM349.53,131.15a147.56,147.56,0,0,1,31.931,32.143L369.4,172.024a132.329,132.329,0,0,0-28.69-28.881Zm-52.123-24.336a145.627,145.627,0,0,1,41.82,17.4l-7.765,12.694a130.875,130.875,0,0,0-37.582-15.637Zm-34.746-4.142a147.6,147.6,0,0,1,22.562,1.721L282.929,119.1a133.147,133.147,0,0,0-40.875.054l-2.326-14.7A147.177,147.177,0,0,1,262.661,102.672ZM227.544,106.9l3.569,14.457a130.936,130.936,0,0,0-37.369,15.636L185.969,124.3A145.808,145.808,0,0,1,227.544,106.9Zm-51.879,24.346,8.838,11.993A132.462,132.462,0,0,0,156.534,171.2l-11.981-8.816A147.3,147.3,0,0,1,175.665,131.245Zm-38.059,41.428,12.693,7.775a131.138,131.138,0,0,0-15.72,37.741l-14.457-3.516A145.61,145.61,0,0,1,137.606,172.673ZM116,249.333a148.108,148.108,0,0,1,1.71-22.476l14.712,2.283a132.477,132.477,0,0,0,.021,40.418l-14.722,2.284A147.028,147.028,0,0,1,116,249.333Zm18.611,31.177a126.128,126.128,0,0,0,5.236,16.687,131.348,131.348,0,0,0,9.656,19.715l-4.78,19.609-.181.732-13.554-3.717,3.25-13.331a145.748,145.748,0,0,1-14.106-36.169Zm3.377,110.322a14.059,14.059,0,0,1-16.836-17.038l6.957-28.489,13.554,3.729-6.734,27.586,27.862-6.47,3.92,14.011Zm89.726.967a145.185,145.185,0,0,1-35.181-13.628l-14.01,3.25L174.614,367.4l.8-.181,19.875-4.61a131.6,131.6,0,0,0,20.9,10.07,128.381,128.381,0,0,0,15.073,4.652Zm34.947,4.2a146.114,146.114,0,0,1-22.763-1.764l2.305-14.7a132.887,132.887,0,0,0,40.694.032l2.284,14.712A147.181,147.181,0,0,1,262.661,396Zm34.7-4.132-3.527-14.457a131.056,131.056,0,0,0,37.4-15.509l7.743,12.7A145.873,145.873,0,0,1,297.365,391.863ZM349.286,367.7,340.5,355.683a132.643,132.643,0,0,0,28.532-28.531l12.014,8.784A147.652,147.652,0,0,1,349.286,367.7Zm38.676-42.075-12.715-7.744a131.211,131.211,0,0,0,15.54-37.56l14.468,3.5A145.652,145.652,0,0,1,387.962,325.622Zm19.693-53.992-14.722-2.263a133.1,133.1,0,0,0-.032-40.312l14.712-2.294a148.974,148.974,0,0,1,.042,44.869Z"/></svg>